# xmcd
#
# Track frame offsets: 
#        150
#        13036
#        29310
#        45663
#        63839
#        83265
#        101464
#        118073
#        133860
#        152213
#        174212
#        192777
#        204966
#        219799
#
# Disc length: 3175 seconds
#
# Revision: 0
# Processed by: cddbd v1.5.1PL0 Copyright (c) Steve Scherf et al.
# Submitted via: ExactAudioCopy v0.95a5
#
DISCID=a80c650e
DTITLE=Six Mile Grove - bumper crop
DYEAR=2004
DGENRE=Country
TTITLE0=heartache parade
TTITLE1=gollywood
TTITLE2=man of steel
TTITLE3=doll in a box
TTITLE4=bus stop revelation
TTITLE5=the novelist
TTITLE6=later on
TTITLE7=apollo
TTITLE8=someone else's shoes
TTITLE9=andy
TTITLE10=right on
TTITLE11=president
TTITLE12=vs. the world
TTITLE13=springtime
EXTD=
EXTT0=
EXTT1=
EXTT2=
EXTT3=
EXTT4=
EXTT5=
EXTT6=
EXTT7=
EXTT8=
EXTT9=
EXTT10=
EXTT11=
EXTT12=
EXTT13=
PLAYORDER=
